# xmcd
#
# Track frame offsets: 
#        150
#        31485
#        51458
#        94775
#        129234
#        147474
#        165851
#        191054
#        215131
#        237337
#        248692
#        277981
#        303909
#
# Disc length: 4348 seconds
#
# Revision: 0
# Processed by: cddbd v1.5.2PL0 Copyright (c) Steve Scherf et al.
# Submitted via: ExactAudioCopy v0.99pb4
#
DISCID=b810fa0d
DTITLE=Various Artist - Time Blues Vol 28
DYEAR=1900
DGENRE=Blues
TTITLE0=Govt Mule - My Separate Reality
TTITLE1=Bill Perry - Live On
TTITLE2=Larry Garner - Love Her With A Feeling
TTITLE3=Albert Gumming - Lonely Bed
TTITLE4=Johnny Rawls And Roy Roberts - You Are The One For Me
TTITLE5=Bernard Allison - New Life I Am In
TTITLE6=Steve Johnson - Blue Lincoln
TTITLE7=Mojo - Never Give Up On Love
TTITLE8=M.C.Clark - My Texas Home
TTITLE9=Sue Foley - Open Up Your Eyes
TTITLE10=The Bruce Katz Band - The Dark Room
TTITLE11=Sharrie Williams - Id Rather Go Blind
TTITLE12=Guy Forsyth - Adams Rib
EXTD=
EXTT0=
EXTT1=
EXTT2=
EXTT3=
EXTT4=
EXTT5=
EXTT6=
EXTT7=
EXTT8=
EXTT9=
EXTT10=
EXTT11=
EXTT12=
PLAYORDER=
